<?xml version="1.0" standalone="no"?>
<svg version="1.0" xmlns="http://www.w3.org/2000/svg"
 width="512.000000pt" height="512.000000pt" viewBox="0 0 512.000000 512.000000"
 preserveAspectRatio="xMidYMid meet">

<g transform="translate(0.000000,512.000000) scale(0.100000,-0.100000)"
fill="#4195BE" stroke="none">
<path d="M2063 5102 c-250 -88 -272 -433 -36 -549 45 -21 74 -28 145 -31 l88
-4 0 -378 0 -378 -237 -5 c-250 -6 -303 -13 -451 -63 -396 -132 -697 -475
-788 -894 -26 -118 -26 -362 0 -480 102 -473 453 -824 933 -936 47 -11 141
-17 306 -21 l237 -5 0 -378 0 -378 -88 -4 c-71 -3 -100 -10 -145 -31 -106 -52
-162 -144 -162 -267 0 -123 56 -214 163 -267 l57 -28 475 0 475 0 57 28 c107
53 163 144 163 267 0 123 -56 215 -162 267 -45 21 -74 28 -145 31 l-88 4 0
378 0 378 238 5 c189 4 254 9 322 25 474 112 826 478 921 957 21 103 18 349
-5 455 -100 466 -450 822 -916 932 -68 16 -133 21 -322 25 l-238 5 0 378 0
378 88 4 c142 7 233 63 286 177 32 71 29 179 -7 253 -32 64 -80 111 -146 142
-44 20 -62 21 -506 23 -421 3 -464 1 -512 -15z m197 -2542 l0 -600 -177 0
c-118 0 -202 5 -248 15 -269 57 -475 310 -475 585 0 273 205 527 470 584 41 9
132 15 248 15 l182 1 0 -600z m1025 585 c270 -57 475 -309 475 -585 0 -276
-205 -528 -475 -585 -46 -10 -130 -15 -247 -15 l-178 0 0 600 0 600 178 0
c117 0 201 -5 247 -15z"/>
</g>
</svg>
